<?xml version="1.0"?>
<svg xmlns="http://www.w3.org/2000/svg" xmlns:xlink="http://www.w3.org/1999/xlink" xmlns:svgjs="http://svgjs.com/svgjs" version="1.1" width="512" height="512" x="0" y="0" viewBox="0 0 512 512" style="enable-background:new 0 0 512 512" xml:space="preserve" class=""><g><g xmlns="http://www.w3.org/2000/svg"><g><path d="m405.328 153.611.001 334.494h106.671l-.001-334.494zm38.032 61.57h30v30h-30zm30 165.421h-30v-30h30zm.415-67.711h-30v-30h30z" fill="white" data-original="#000000" style="" class=""/><path d="m405.549 75.514h106.451v48.098h-106.451z" fill="white" data-original="#000000" style="" class=""/></g><path d="m.002 47.46-.002 440.642 107.168-.002.002-410.156zm38.552 100.101h30v30h-30zm30.031 233.131h-30v-30h30zm0-67.71h-30v-30h30zm.191-67.711h-30v-30h30z" fill="white" data-original="#000000" style="" class=""/><g><path d="m211 405.605h30v82.5h-30z" fill="white" data-original="#000000" style="" class=""/><path d="m271 405.605h30v82.5h-30z" fill="white" data-original="#000000" style="" class=""/><path d="m139.97 23.895v464.21h41.03v-112.5h150v112.5h44.3v-464.21zm71.03 306.71h-30v-63.75h30zm0-93.75h-30v-63.75h30zm0-93.75h-30v-63.75h30zm60 187.5h-30v-63.75h30zm0-93.75h-30v-63.75h30zm0-93.75h-30v-63.75h30zm60 187.5h-30v-63.75h30zm0-93.75h-30v-63.75h30zm0-93.75h-30v-63.75h30z" fill="white" data-original="#000000" style="" class=""/></g></g></g></svg>
