<?xml version="1.0"?>
<svg xmlns="http://www.w3.org/2000/svg" xmlns:xlink="http://www.w3.org/1999/xlink" xmlns:svgjs="http://svgjs.com/svgjs" version="1.1" width="512" height="512" x="0" y="0" viewBox="0 0 512 512" style="enable-background:new 0 0 512 512" xml:space="preserve" class=""><g><g xmlns="http://www.w3.org/2000/svg"><path d="m350.84 297.34-53.49 53.5-184.23-184.22-40.34-22.38-72.78-72.84 71.4-71.4 72.84 72.77 22.38 40.35z" fill="#204f8c" data-original="#000000" style="" class=""/><path d="m482.161 388.563-108.841-70.211-54.935 54.898 70.15 108.88c23.57 35.24 73.46 40.15 103.42 10.18l.125-.125.003.003.2-.2c29.987-29.943 25.105-79.835-10.122-103.425z" fill="#204f8c" data-original="#000000" style="" class=""/><path d="m247.218 337.08-159.95 159.95c-19.71 19.968-52.617 19.952-72.29 0-19.828-20.11-19.97-52.34 0-72.3l159.94-159.95z" fill="#204f8c" data-original="#000000" style="" class=""/><path d="m474.762 217.112c-35.45 35.45-86.62 45.6-131.07 30.42l-79.23-79.23c-15.17-44.43-5.02-95.61 30.43-131.06 36.28-36.28 89.03-46.06 134.19-29.31l-44.21 42.81 15.03 59.95 59.43 16.97 45.12-43.72c16.21 44.93 6.31 97.17-29.69 133.17z" fill="#204f8c" data-original="#000000" style="" class=""/></g></g></svg>
